<svg xmlns="http://www.w3.org/2000/svg" width="33.01" height="44.985" viewBox="0 0 33.01 44.985">
  <g id="Group_81" data-name="Group 81" transform="translate(-3.367 -11.244)">
    <path id="Path_7" data-name="Path 7" d="M55.786,170.084c-.707,1.31-1.826,6.723-2.507,11.678a86.085,86.085,0,0,0-.867,12.479,26.9,26.9,0,0,0,.564,5.455c.168.8.168.8.4.45a16.744,16.744,0,0,1,1.952-2.427c1.262-1.368,3.349-3.42,4.779-4.7a23.986,23.986,0,0,1,2.625-2.094c.4-.284.438-.342-.1-1.276a33.486,33.486,0,0,1-2.684-5.439,61.666,61.666,0,0,1-2.566-9.451c-.606-3.186-.892-5.989-1.6-4.68Z" transform="translate(-49.038 -157.814)" fill="#fe9912" fill-rule="evenodd"/>
    <path id="Path_8" data-name="Path 8" d="M73.793,166.852c.446-.359,2.044,1.618,5.023,3.487a57.459,57.459,0,0,0,10.576,4.788A37.925,37.925,0,0,0,96.5,177.02a29.314,29.314,0,0,0,3.954.292c.732.017.732.017.143.209s-1.767.584-3.407,1.226-3.752,1.543-6.285,2.753-5.486,2.744-7.311,3.845a13.157,13.157,0,0,0-2.861,2.144c-.337.359-.32.4-.6-.083s-.842-1.485-1.523-2.928a45.852,45.852,0,0,1-2.137-5.389c-.664-2.06-1.2-4.3-1.826-6.748s-1.312-5.138-.858-5.489Z" transform="translate(-65.253 -155.566)" fill="#8a4bc6" fill-rule="evenodd"/>
    <path id="Path_9" data-name="Path 9" d="M58.84,274.032a12.647,12.647,0,0,1,2.044-2.628c1.2-1.285,2.978-2.97,4.341-4.154s2.314-1.885,2.777-2.294.454-.517.909.367a39.641,39.641,0,0,0,3.012,5.1,70.827,70.827,0,0,0,6.377,7.607,53.348,53.348,0,0,0,6.6,6.031,16.511,16.511,0,0,0,3.971,2.177c.7.267.7.267-.488.234a25.108,25.108,0,0,1-7.353-1.268,96.155,96.155,0,0,1-12.881-5.414c-3.9-1.952-6.512-3.587-7.917-4.421s-1.607-.876-1.388-1.334Z" transform="translate(-53.893 -230.256)" fill="#e50b4c" fill-rule="evenodd"/>
    <path id="Path_10" data-name="Path 10" d="M105.554,225.955a23.473,23.473,0,0,1,3.483-2.277c2.1-1.243,5.359-3.053,7.909-4.354a59.4,59.4,0,0,1,5.73-2.586c1.346-.517,2.2-.767,2.65-.909s.463-.175.269.309a15.712,15.712,0,0,0-.942,3.587c-.345,2.094-.631,5.272-.766,7.808a52.781,52.781,0,0,0-.017,6.315c.118,1.9.336,3.812.539,5.622s.4,3.52.581,4.9a20.859,20.859,0,0,0,.564,3.128c.219.692.5,1.009-.353.55a37.039,37.039,0,0,1-5.006-3.445,64.548,64.548,0,0,1-6.293-5.914,45.742,45.742,0,0,1-4.055-5c-1.152-1.618-2.339-3.362-3.088-4.571s-1.052-1.885-1.27-2.277-.353-.5.067-.892Z" transform="translate(-89.4 -192.914)" fill="#f26612" fill-rule="evenodd"/>
  </g>
</svg>
