<svg xmlns="http://www.w3.org/2000/svg" width="142.002" height="31.667" viewBox="0 0 142.002 31.667">
  <g id="logo_wikifavelas-color" transform="translate(-58.828 -97.907)">
    <g id="Group_84" data-name="Group 84">
      <g id="Group_83" data-name="Group 83">
        <path id="Path_1" data-name="Path 1" d="M458.218,246.462c.09.428.171.76.236.986a2.539,2.539,0,0,1,.09.509c0,.113-.033.178-.09.21s-.147.081-.236.137a.781.781,0,0,1-.326.049,2.851,2.851,0,0,1-.93-.21,4.406,4.406,0,0,1-1.068-.574,4.182,4.182,0,0,1-1.329-1.366,6.818,6.818,0,0,1-.628-2.191c-.065-.493-.114-.841-.139-1.035a.336.336,0,0,0-.375-.307,2.733,2.733,0,0,0-.726.162c-.326.113-.767.243-1.321.4-.44.121-.873.243-1.3.348s-.734.178-.889.21a1.05,1.05,0,0,0-.53.138,1.163,1.163,0,0,0-.261.5c-.245.986-.449,1.892-.6,2.708a16.361,16.361,0,0,0-.277,2q0,.509-.024.873a1.555,1.555,0,0,1-.073.469c-.025.057-.114.105-.253.137a2.553,2.553,0,0,1-.44.041,4.108,4.108,0,0,1-.514-.041,2.972,2.972,0,0,1-.514-.137,5.569,5.569,0,0,1-.864-.445,6.053,6.053,0,0,1-.815-.574,2.583,2.583,0,0,1-.718-1.083,4.215,4.215,0,0,1-.074-1.755,22.356,22.356,0,0,1,.652-2.983q.514-1.843,1.4-4.754,2.14-6.876,3.653-10.7a19.894,19.894,0,0,1,2.446-4.9,1.862,1.862,0,0,1,.53-.461,1.6,1.6,0,0,1,.587-.089,2.637,2.637,0,0,1,1.256.348,4.606,4.606,0,0,1,1.207.922,6.736,6.736,0,0,1,1,1.334,5.687,5.687,0,0,1,.628,1.552,13.5,13.5,0,0,1,.3,1.657c.082.615.155,1.391.237,2.312s.147,2.053.212,3.387.139,2.983.228,4.924c.1,1.964.188,3.517.277,4.657a17.708,17.708,0,0,0,.375,2.636Zm-4.7-7.527-.09-2.078c-.033-.55-.057-1.277-.073-2.167s-.033-1.682-.065-2.361l-.1-2.539-.555,1.431c-.22.558-.489,1.285-.815,2.2s-.636,1.795-.93,2.676-.538,1.641-.726,2.28a3.713,3.713,0,0,0-.228.97c.122-.024.261-.057.416-.089a4.037,4.037,0,0,1,.416-.089,4.313,4.313,0,0,0,.514-.146,7.813,7.813,0,0,1,1.443-.275.76.76,0,0,1,.326.048Zm17.931-14.083-.139,3.557q-.232,5.311-.726,9.095a36.251,36.251,0,0,1-1.142,5.861c-.155.493-.367,1.051-.628,1.665a8.925,8.925,0,0,1-.954,1.706,5.827,5.827,0,0,1-1.28,1.318,2.764,2.764,0,0,1-1.7.526,3.155,3.155,0,0,1-1.215-.227,6.737,6.737,0,0,1-2.886-1.989,8.979,8.979,0,0,1-1.859-3.46,12.743,12.743,0,0,1-.375-1.455c-.09-.477-.163-.986-.212-1.52s-.073-1.14-.09-1.8-.024-1.423-.024-2.288c.033-.889.065-1.617.09-2.191a10.823,10.823,0,0,1,.147-1.358,2.308,2.308,0,0,1,.228-.744.574.574,0,0,1,.326-.275.633.633,0,0,1,.277-.049,2.385,2.385,0,0,1,1.191.421,5.553,5.553,0,0,1,1.19.97,4.372,4.372,0,0,1,.766,1.108.759.759,0,0,1-.024.873c-.065.032-.114.21-.163.534s-.1.7-.163,1.132a14.946,14.946,0,0,0-.073,1.892c.016.7.057,1.423.122,2.142s.155,1.439.277,2.151.261,1.35.416,1.94l.188.647.514-.606a9.017,9.017,0,0,0,1.533-2.789,23.042,23.042,0,0,0,1.166-4.131c.253-1.382.457-3.032.628-4.94s.334-4.2.489-6.88c.065-.768.114-1.439.139-2.005a4.725,4.725,0,0,1,.1-.946c.057-.154.245-.235.554-.235a2.852,2.852,0,0,1,1.631.582,5.131,5.131,0,0,1,1.3,1.221Zm29.436,13.671a1.688,1.688,0,0,1,.489.946c-.016.194-.2.4-.538.622-.179.121-.448.323-.791.6s-.726.615-1.158,1.019-.905.833-1.4,1.31-.987.978-1.484,1.5c-1.15,1.2-1.949,2.029-2.4,2.49s-.791.784-1,.97a1.837,1.837,0,0,1-1.256.42,3.737,3.737,0,0,1-.587-.049c-.2-.032-.407-.081-.628-.137a6.041,6.041,0,0,1-1.329-.582,2.25,2.25,0,0,1-.815-.76l-.277-.412.791-2.724c.375-1.229.758-2.619,1.141-4.155s.75-3.129,1.093-4.778.669-3.3.979-4.964.579-3.234.791-4.7c.131-.986.228-1.665.3-2.038a.931.931,0,0,1,1-.922,2.786,2.786,0,0,1,1.443.485,6.55,6.55,0,0,1,1.492,1.269c.5.59.587,1.067.277,1.431a2.953,2.953,0,0,0-.228.905c-.1.534-.171,1.156-.236,1.868q-.282,2.631-.718,5.376-.452,2.753-.954,5.1l-.147.461.8-.736a4.787,4.787,0,0,1,2.511-1.479h.139a4.2,4.2,0,0,1,1.419.623,5.08,5.08,0,0,1,1.28,1.043Zm14.392,7.939c.09.428.171.76.228.986a2.175,2.175,0,0,1,.1.509c0,.113-.033.178-.1.21s-.139.081-.228.137a.779.779,0,0,1-.326.049,2.846,2.846,0,0,1-.938-.21,4.73,4.73,0,0,1-1.068-.574,4.356,4.356,0,0,1-1.329-1.366,7.026,7.026,0,0,1-.628-2.191c-.057-.493-.106-.841-.139-1.035a.336.336,0,0,0-.375-.307,2.694,2.694,0,0,0-.718.162c-.326.113-.766.243-1.329.4-.432.121-.864.243-1.3.348s-.726.178-.881.21a1.12,1.12,0,0,0-.538.138,1.18,1.18,0,0,0-.253.5c-.253.986-.448,1.892-.6,2.708a15.142,15.142,0,0,0-.285,2q0,.509-.024.873a1.393,1.393,0,0,1-.065.469.384.384,0,0,1-.261.137,2.553,2.553,0,0,1-.44.041,4.11,4.11,0,0,1-.514-.041,3.087,3.087,0,0,1-.506-.137,5.234,5.234,0,0,1-.864-.445,6.079,6.079,0,0,1-.815-.574,2.512,2.512,0,0,1-.718-1.083,4.085,4.085,0,0,1-.073-1.755,21.132,21.132,0,0,1,.652-2.983q.514-1.843,1.395-4.754,2.14-6.876,3.653-10.7a19.891,19.891,0,0,1,2.446-4.9,1.981,1.981,0,0,1,.538-.461,1.58,1.58,0,0,1,.579-.089,2.613,2.613,0,0,1,1.256.348,4.638,4.638,0,0,1,1.215.922,7.058,7.058,0,0,1,1,1.334,5.684,5.684,0,0,1,.628,1.552,15.286,15.286,0,0,1,.3,1.657c.073.615.155,1.391.228,2.312s.147,2.053.212,3.387.139,2.983.237,4.924q.135,2.947.277,4.657a16.727,16.727,0,0,0,.375,2.636Zm-4.705-7.527-.1-2.078c-.025-.55-.049-1.277-.065-2.167s-.041-1.682-.073-2.361l-.09-2.539-.563,1.431c-.212.558-.489,1.285-.815,2.2s-.636,1.795-.93,2.676-.53,1.641-.717,2.28a4.07,4.07,0,0,0-.236.97c.122-.024.269-.057.424-.089a4.03,4.03,0,0,1,.416-.089,4.292,4.292,0,0,0,.514-.146,7.582,7.582,0,0,1,1.443-.275.785.785,0,0,1,.326.048Zm17.32.235a6.191,6.191,0,0,1,2.145,2.838,4.62,4.62,0,0,1,.139,3.21,3.244,3.244,0,0,1-.978,1.01,4.794,4.794,0,0,1-1.541.784,11.005,11.005,0,0,1-3.115.372c-.188,0-.383-.008-.579-.024s-.416-.024-.636-.024a11.263,11.263,0,0,1-2.259-.364,3.659,3.659,0,0,1-1.786-1.342,5.122,5.122,0,0,1-.563-1.018,8.61,8.61,0,0,1-.375-1.083,4.022,4.022,0,0,1-.138-.97,1.353,1.353,0,0,1,.138-.671c.13-.21.253-.323.375-.323,0,0,.1.032.277.1a2.022,2.022,0,0,1,.4.251,1.728,1.728,0,0,1,.3.3.861.861,0,0,0,.44.307c.171.04.611.113,1.329.2q.465.049.905.073c.3.016.6.024.913.024a13.93,13.93,0,0,0,1.468-.073,5.241,5.241,0,0,0,1.182-.251l.652-.186-.84-.42c-.245-.121-.783-.348-1.606-.687s-1.7-.679-2.626-1.019c-1.085-.428-1.965-.8-2.634-1.107a9.909,9.909,0,0,1-1.606-.9,4.057,4.057,0,0,1-.954-.946,8.7,8.7,0,0,1-.677-1.245,4.708,4.708,0,0,1-.416-3.42,4.532,4.532,0,0,1,1.044-1.843,10.663,10.663,0,0,1,1.908-1.69,13,13,0,0,1,2.356-1.293,7.122,7.122,0,0,1,2.422-.574,5.7,5.7,0,0,1,4.257,1.682,9.166,9.166,0,0,1,2.308,4.042,11.13,11.13,0,0,1,.416,2.167c.033.558-.073.913-.326,1.067a.317.317,0,0,1-.188.04c-.334,0-.7-.259-1.093-.784a4.816,4.816,0,0,1-.815-1.843,2.621,2.621,0,0,0-.579-1.132,2.657,2.657,0,0,0-1.141-.574,2.214,2.214,0,0,0-.88-.146,6.911,6.911,0,0,0-2.12.4,9.651,9.651,0,0,0-2.259,1.083c-.188.121-.408.275-.652.436a8.138,8.138,0,0,0-.677.509q-.306.255-.514.461c-.139.146-.2.243-.2.3s.334.218,1.019.469c1.892.647,3.563,1.294,5.007,1.957a20.033,20.033,0,0,1,3.376,1.876Zm-41.3-2.579a4.9,4.9,0,0,1,1.46,1.374,2.783,2.783,0,0,1,.6,1.577,1.105,1.105,0,0,1-.767,1.051c-.1.057-.326.218-.677.477s-.734.55-1.15.905c-.416.38-1.093.922-2.022,1.641s-1.924,1.431-2.976,2.142a33.577,33.577,0,0,1-3.074,1.859,5.572,5.572,0,0,1-2.405.784,3.447,3.447,0,0,1-1.639-.429,5.769,5.769,0,0,1-1.46-1.091,5.284,5.284,0,0,1-1.036-1.5,3.752,3.752,0,0,1-.383-1.593,8.194,8.194,0,0,1,.913-3.46,19.475,19.475,0,0,1,2.593-3.977,4.618,4.618,0,0,0,.53-.736q.1-.218,0-.315a.422.422,0,0,0-.245-.138,1.177,1.177,0,0,1-.31-.218,5.442,5.442,0,0,1-.554-.525c-.188-.2-.383-.421-.571-.639a2.97,2.97,0,0,1-.391-.526,2.308,2.308,0,0,1-.334-2,7.559,7.559,0,0,1,.864-1.285,21.162,21.162,0,0,1,1.59-1.787c.6-.615,1.231-1.237,1.875-1.86a17.826,17.826,0,0,1,1.729-1.5,7.021,7.021,0,0,1,3.84-1.722,2.833,2.833,0,0,1,.408.024,3.679,3.679,0,0,1,.367.073,5.108,5.108,0,0,1,2.087,1.358,6.252,6.252,0,0,1,1.517,2.263,4.546,4.546,0,0,1,.188.833c.065.4.114.809.147,1.221s.057.784.073,1.116a2.26,2.26,0,0,1-.024.647c-.033.186-.2.283-.481.283a1.909,1.909,0,0,1-.962-.283,5.226,5.226,0,0,1-.913-.7,7.839,7.839,0,0,1-.791-.857,3.141,3.141,0,0,1-.505-.833l-.245-.711-1.15.857c-.318.251-.669.534-1.06.857s-.7.582-.962.808l-.864.76h.481a2.862,2.862,0,0,1,1.688.833,5.148,5.148,0,0,1,1.3,1.884,1.539,1.539,0,0,1,.212,1.075,2.854,2.854,0,0,1-.889,1.075c-1.027.914-1.981,1.86-2.879,2.83a22.777,22.777,0,0,0-1.973,2.361c-.448.639-.8,1.156-1.06,1.569s-.35.655-.285.719a4.431,4.431,0,0,0,1.036-.647c.652-.461,1.419-1.01,2.308-1.665s1.778-1.342,2.691-2.07,1.655-1.334,2.234-1.811a2.881,2.881,0,0,1,1.346-.816,1.778,1.778,0,0,1,.962.437Z" transform="translate(-329.567 -123.146)" fill="#e50b4c"/>
        <path id="Path_2" data-name="Path 2" d="M413.852,221.671a15.749,15.749,0,0,1-3.115.921l-2.985.736.049,3.008c0,.825.016,1.544.049,2.142s.057.889.09.857c.033,0,.122-.008.277-.024s.359-.04.612-.073a1.628,1.628,0,0,1,.3-.04h.2a.766.766,0,0,1,.562.226,2.152,2.152,0,0,1,.555.809,4.114,4.114,0,0,1,.326,1.107,6.641,6.641,0,0,1,.1,1.107,2.039,2.039,0,0,1-.187.906.935.935,0,0,1-.652.55c-.122.032-.334.081-.628.137s-.579.121-.864.186l-1.117.234-.041,1.148c-.065.647-.131,1.48-.188,2.5s-.122,2.054-.188,3.113-.114,2.07-.163,3.024-.073,1.706-.073,2.264c-.024.889-.057,1.512-.09,1.868s-.081.55-.139.582a.676.676,0,0,1-.465.138,2.266,2.266,0,0,1-.465-.049c-.155-.032-.326-.081-.514-.138a5.476,5.476,0,0,1-1.745-1.019,2.325,2.325,0,0,1-.913-1.382,12.726,12.726,0,0,1-.024-2.126c.049-1.14.155-2.9.31-5.3.057-.865.106-1.6.139-2.215a3.793,3.793,0,0,0,0-.97c-.033-.032-.171-.008-.424.065s-.538.178-.881.3-.644.235-.905.324a2.112,2.112,0,0,1-.489.137c-.188,0-.448-.17-.775-.525a4.561,4.561,0,0,1-.766-1.132,4.729,4.729,0,0,1-.465-1.528,1.443,1.443,0,0,1,.139-1.059,4.249,4.249,0,0,1,.84-.412c.5-.218,1.1-.453,1.818-.7.677-.218,1.264-.4,1.745-.574a3.885,3.885,0,0,0,.815-.348,3.509,3.509,0,0,0,.228-1.019c.1-.614.171-1.285.236-2s.106-1.382.139-1.965.016-.873-.049-.873q-.134,0-.465.412c-.188.243-.326.372-.416.372a1.134,1.134,0,0,1-.424-.137,2.4,2.4,0,0,1-.669-.485,6.458,6.458,0,0,1-.677-.784,4.666,4.666,0,0,1-.538-.93,5.514,5.514,0,0,1-.3-.9,1.364,1.364,0,0,1,.188-1.035,3.283,3.283,0,0,1,1.207-.857c.342-.154.987-.4,1.933-.72s1.949-.639,3.009-.946,2.063-.574,3.025-.808a10.36,10.36,0,0,1,2.047-.34.86.86,0,0,1,.628.2,8.319,8.319,0,0,1,.579.671,3.354,3.354,0,0,1,.465.881,5.831,5.831,0,0,1,.285.986,3.784,3.784,0,0,1,.065.881,1.316,1.316,0,0,1-.163.623Z" transform="translate(-295.189 -119.52)" fill="#e50b4c"/>
      </g>
      <g id="Group_82" data-name="Group 82">
        <path id="Path_3" data-name="Path 3" d="M372.551,270.63c0,.113.016.315.041.6a8.04,8.04,0,0,0,.106.808,23.628,23.628,0,0,1,.3,2.9c.057,1.156.09,2.474.09,3.961,0,.824-.008,1.455-.016,1.908a5.6,5.6,0,0,1-.09.97c-.049.2-.122.323-.237.372a1.192,1.192,0,0,1-.481.073,3.2,3.2,0,0,1-1.1-.178,3.942,3.942,0,0,1-.889-.445,1.762,1.762,0,0,1-.571-.55.93.93,0,0,1-.073-.259,3.634,3.634,0,0,1-.041-.623c0-.283.008-.663.025-1.148s.024-1.091.049-1.819c.025-1.2.041-2.312.041-3.323s-.025-1.932-.073-2.757c-.025-.663-.041-1.172-.057-1.536a7.637,7.637,0,0,1,.016-.817q.037-.267.147-.315a.676.676,0,0,1,.318-.057,1.835,1.835,0,0,1,.783.21,4.352,4.352,0,0,1,.807.534,3.769,3.769,0,0,1,.644.7,1.43,1.43,0,0,1,.261.784Z" transform="translate(-273.385 -158.43)" fill="#8a4bc6"/>
        <path id="Path_4" data-name="Path 4" d="M327.208,247.314a3.538,3.538,0,0,1,1.142,1.609,4.32,4.32,0,0,1,0,2.1c-.049.307-.155.784-.318,1.439s-.343,1.3-.514,1.956-.342,1.253-.481,1.771a4.6,4.6,0,0,1-.285.849.493.493,0,0,1-.4.137,2.919,2.919,0,0,1-1.851-.954,3.732,3.732,0,0,1-.481-.493,1.006,1.006,0,0,1-.179-.55,3.241,3.241,0,0,1,.122-.865c.1-.356.245-.849.432-1.488.187-.582.342-1.083.465-1.5a2.148,2.148,0,0,0,.138-.655c-.024-.024-.147.008-.375.105s-.505.226-.832.388c-.334.137-.669.275-1,.4a7.664,7.664,0,0,1-.783.267,2.378,2.378,0,0,0-.391.089c-.1.032-.171.162-.236.372a5.18,5.18,0,0,0-.106,1.043c-.008.485-.041,1.18-.09,2.1-.041.752-.09,1.407-.122,1.965a2.729,2.729,0,0,1-.122.9.619.619,0,0,1-.432.105,3.386,3.386,0,0,1-1.37-.332,2.993,2.993,0,0,1-1.125-.833l-.318-.356.074-1.8c.065-1.552.187-3.307.351-5.247s.416-4.309.75-7.09c.049-.332.082-.679.106-1.043s.057-.728.09-1.091.065-.712.09-1.043.049-.615.073-.849a8.791,8.791,0,0,1,.253-2.054.649.649,0,0,1,.636-.525.925.925,0,0,1,.285.032,2.435,2.435,0,0,1,.962.509,3.871,3.871,0,0,1,.856.873,2.108,2.108,0,0,1,.343.687.957.957,0,0,1-.131.614c-.016.073-.065.324-.122.744s-.106.881-.138,1.358-.065.93-.09,1.326a2.228,2.228,0,0,0,0,.638c.138-.21.31-.445.5-.7.139-.234.318-.509.514-.816s.416-.623.628-.954c.359-.518.644-.946.856-1.269a9.2,9.2,0,0,1,.554-.784,3.033,3.033,0,0,1,.367-.388.542.542,0,0,1,.285-.105,1.156,1.156,0,0,1,.326.073,1.317,1.317,0,0,1,.375.21,5.333,5.333,0,0,1,.465.412,3.9,3.9,0,0,1,.44.509,3.349,3.349,0,0,1,.326.493,1.919,1.919,0,0,1,.245.76.816.816,0,0,1-.212.517,2.017,2.017,0,0,0-.212.315q-.184.279-.465.727c-.188.291-.408.631-.644,1.019s-.489.8-.75,1.221c-.375.615-.685,1.116-.921,1.5s-.416.687-.538.905A3.765,3.765,0,0,0,324,247c-.025.073-.016.105.032.105a.325.325,0,0,0,.147-.032,5.1,5.1,0,0,1,.8-.3,2.712,2.712,0,0,1,.8-.162,2.144,2.144,0,0,1,1.427.7Z" transform="translate(-233.782 -133.812)" fill="#8a4bc6"/>
        <path id="Path_5" data-name="Path 5" d="M301.9,270.63c0,.113.008.315.032.6s.057.55.106.808a22.024,22.024,0,0,1,.3,2.9c.065,1.156.09,2.474.09,3.961,0,.824,0,1.455-.016,1.908a4.859,4.859,0,0,1-.09.97c-.049.2-.122.323-.228.372a1.22,1.22,0,0,1-.481.073,3.22,3.22,0,0,1-1.109-.178,3.951,3.951,0,0,1-.889-.445,1.855,1.855,0,0,1-.571-.55.95.95,0,0,1-.073-.259,3.875,3.875,0,0,1-.033-.623c0-.283,0-.663.016-1.148s.033-1.091.049-1.819c.024-1.2.041-2.312.041-3.323s-.024-1.932-.073-2.757c-.024-.663-.041-1.172-.049-1.536a4.842,4.842,0,0,1,.016-.817c.025-.178.065-.283.139-.315a.692.692,0,0,1,.326-.057,1.834,1.834,0,0,1,.783.21,4.028,4.028,0,0,1,.8.534,3.506,3.506,0,0,1,.644.7,1.379,1.379,0,0,1,.269.784Z" transform="translate(-219.446 -158.43)" fill="#8a4bc6"/>
        <path id="Path_6" data-name="Path 6" d="M230.986,248.241a9.354,9.354,0,0,1-.139,2.425,3.774,3.774,0,0,1-.823,1.641,2.79,2.79,0,0,1-1.2.849,4.364,4.364,0,0,1-1.582.283,4.825,4.825,0,0,1-2.136-.445,5.312,5.312,0,0,1-1.623-1.164,7.625,7.625,0,0,1-1.215-1.682c-.342-.631-.66-1.294-.946-1.973l-.5-1.237-.571.913c-.163.259-.326.518-.481.776s-.269.453-.342.566-.212.372-.424.76-.465.849-.75,1.366-.579,1.067-.889,1.641-.6,1.116-.873,1.625-.505.938-.7,1.294-.294.566-.318.631a1.424,1.424,0,0,1-.2.34,1.63,1.63,0,0,1-.2.226,1.973,1.973,0,0,1-.465.129,4.5,4.5,0,0,1-.677.049,2.861,2.861,0,0,1-.889-.105,3.612,3.612,0,0,1-.9-.388.96.96,0,0,1-.457-.461c0-.048.016-.186.049-.42s.09-.542.163-.922.155-.809.245-1.294.2-.995.285-1.536q.5-2.4.856-4.115c.236-1.148.432-2.134.571-2.967s.261-1.568.359-2.2a15.864,15.864,0,0,0,.179-1.746c.024-.542.033-1.083.033-1.625s-.008-1.156-.033-1.835a1.4,1.4,0,0,1,.033-.428c.024-.049.13-.1.326-.137a.668.668,0,0,1,.285-.041,3.206,3.206,0,0,1,1.818.639,4.983,4.983,0,0,1,.53.4,1.1,1.1,0,0,1,.285.429,1.965,1.965,0,0,1,.122.687c.016.283.033.679.057,1.2v1.269c0,.445-.016.881-.033,1.31s-.057.816-.09,1.18a8.146,8.146,0,0,1-.13.865c-.025.073-.025.113,0,.113l.073-.073a.969.969,0,0,0,.122-.146c.041-.049.081-.089.13-.138a2.531,2.531,0,0,1,2.03-1.059,3.789,3.789,0,0,1,2.462.954,5.975,5.975,0,0,1,.677.72,7.475,7.475,0,0,1,.726,1.132c.253.461.546,1.019.872,1.682.481.922.905,1.682,1.288,2.3s.6.881.644.816a2.975,2.975,0,0,0,.53-1.293,9.031,9.031,0,0,0,.212-2.07,13.741,13.741,0,0,0-.106-1.7c-.065-.582-.188-1.261-.351-2.013s-.391-1.617-.66-2.6-.611-2.118-1.019-3.412c-.334-1.083-.6-1.956-.8-2.619s-.342-1.172-.416-1.536a2.555,2.555,0,0,1-.065-.744.345.345,0,0,1,.179-.267,1.016,1.016,0,0,1,.6-.137,3.645,3.645,0,0,1,1.7.461,1.914,1.914,0,0,1,1.052,1.342c.041.162.171.622.391,1.358s.448,1.56.709,2.458c.473,1.488.864,2.733,1.158,3.735s.538,1.851.718,2.563.3,1.318.375,1.835.114,1.035.139,1.552Z" transform="translate(-152.873 -131.36)" fill="#8a4bc6"/>
      </g>
    </g>
  </g>
</svg>
